<?xml version="1.0" encoding="UTF-8"?>
<svg width="285px" height="281px" viewBox="0 0 285 281" version="1.1" xmlns="http://www.w3.org/2000/svg" xmlns:xlink="http://www.w3.org/1999/xlink">
    <title>project-bg-closerlook</title>
    <g id="project-bg-closerlook" stroke="none" stroke-width="1" fill="none" fill-rule="evenodd">
        <g id="Group-78" fill="#6D7278" transform="translate(0.315021, 0.000000)">
            <path d="M114.671786,36.9201169 L105.929045,5.11112006 C30.3300509,24.6069569 -14.9264898,101.564207 5.13038619,176.469265 C7.70178055,186.217183 11.3017326,195.452053 15.9302425,204.173875 C2.55899183,123.112238 43.7013015,54.3637604 114.671786,36.9201169" id="Fill-1"></path>
            <path d="M65.3010141,216.487035 L41.644186,239.57421 C97.1863041,294.470382 186.670828,294.98343 242.727225,240.087258 C249.927129,232.904582 256.098475,225.208857 261.755543,217.000083 C197.470684,269.331014 116.214622,268.817965 65.3010141,216.487035" id="Fill-3"></path>
            <g id="Group-7" transform="translate(149.642749, 0.259804)">
                <path d="M97.7129855,168.818999 L129.598276,177.540821 C150.16943,102.635764 105.427169,25.6785135 29.8281745,5.15658004 C20.056876,2.07829002 10.2855774,0.53914501 0.514278871,0.0260966736 C78.1703884,29.2698519 117.769861,99.0444257 97.7129855,168.818999" id="Fill-5"></path>
            </g>
            <path d="M150.157028,169.286588 C166.099673,165.182201 175.356693,148.764654 171.242462,133.373204 C167.128231,117.981754 150.671307,108.233836 135.242941,112.338222 C119.300296,116.442609 110.043276,132.860156 114.157507,148.251606 C118.271738,164.156104 134.214383,173.390975 150.157028,169.286588" id="Fill-8"></path>
        </g>
    </g>
</svg>