<?xml version="1.0" encoding="UTF-8"?>
<svg width="576px" height="576px" viewBox="0 0 576 576" version="1.1" xmlns="http://www.w3.org/2000/svg" xmlns:xlink="http://www.w3.org/1999/xlink">
    <!-- Generator: Sketch 54.1 (76490) - https://sketchapp.com -->
    <title>project-bg-friendly-future</title>
    <desc>Created with Sketch.</desc>
    <g id="project-bg-friendly-future" stroke="none" stroke-width="1" fill="none" fill-rule="evenodd" opacity="0.3">
        <g id="Group-7" transform="translate(93.000000, 57.000000)">
            <polygon id="Fill-1" fill="#12E3C0" points="195.0998 0.000311111111 0.170022222 68.9456444 0.168466667 72.4752 0.166911111 72.4752 0.129577778 114.104978 0.123355556 121.828311 0.120244444 125.365644 47.5195778 142.131422 47.5195778 159.091644 242.458689 227.522089 295.058244 208.917644 295.058244 178.926533 337.416022 193.906533 339.082022 193.321644 390.029578 175.362756 390.029578 68.9472"></polygon>
            <polygon id="Fill-2" fill="#12E3C0" points="95.011 251.633511 95.011 281.529733 89.635 279.639733 54.0827778 267.131511 52.4198889 266.546622 -0.000777777778 285.085733 -0.000777777778 388.080622 -0.000777777778 391.613289 194.932111 460.561733 389.861889 391.613289 389.861889 388.080622 389.861889 334.575733 342.299222 317.746178 342.299222 301.433067 147.409889 232.943511"></polygon>
            <polygon id="Fill-3" fill="#FFFFFF" points="285.063178 201.851222 247.449844 215.152778 247.449844 165.171222 200.053622 181.941667 200.053622 142.573667 380.034511 79.527 380.034511 168.287 342.3994 181.552778 342.3994 131.588333 285.063178 151.908556"></polygon>
            <polygon id="Fill-4" fill="#FFFFFF" points="379.866978 384.547022 199.9312 448.189467 199.9312 359.291022 237.420089 346.029911 237.420089 388.977244 237.420089 396.047244 294.857422 375.733244 294.857422 325.714356 332.302756 312.470356 332.302756 362.486133 379.866978 345.6628"></polygon>
            <path d="M195.0998,0.000311111111 L0.170022222,68.9456444 L0.168466667,72.4752 L0.166911111,72.4752 L0.129577778,114.104978 L0.123355556,121.828311 L0.120244444,125.365644 L47.5195778,142.131422 L47.5195778,159.091644 L242.458689,227.522089 L295.058244,208.917644 L295.058244,178.926533 L337.416022,193.906533 L339.082022,193.321644 L390.029578,175.362756 L390.029578,68.9472 L195.0998,0.000311111111 Z M20.3611333,72.4067556 L195.0998,10.6029778 L230.448244,23.1065333 L55.8449111,84.8620889 L20.3611333,72.4067556 Z M64.8718,88.0323111 L239.442467,26.2860889 L277.832022,39.8660889 L103.406022,101.559422 L64.8718,88.0323111 Z M112.434467,104.726533 L286.823133,43.0456444 L325.212689,56.6240889 L150.967133,118.2552 L112.434467,104.726533 Z M159.994022,121.423867 L334.206911,59.8052 L369.978467,72.4565333 L195.0578,133.732978 L159.994022,121.423867 Z M10.1240222,118.298756 L10.1271333,114.112756 L10.1582444,79.4192 L190.056689,142.571644 L190.056689,181.9412 L10.1240222,118.298756 Z M200.054244,142.5732 L380.033578,79.5265333 L380.033578,168.286533 L342.400022,181.553867 L342.400022,131.589422 L285.0638,151.906533 L285.0638,201.850756 L247.450467,215.152311 L247.450467,165.170756 L200.054244,181.9412 L200.054244,142.5732 Z M57.5171333,152.006089 L57.5171333,145.6672 L193.388689,193.724533 L195.054689,194.312533 L237.454467,179.310756 L237.454467,215.170978 L57.5171333,152.006089 Z M295.058244,168.323867 L295.058244,158.971867 L332.404022,145.7372 L332.404022,181.532089 L295.058244,168.323867 Z" id="Fill-5" fill="#00B899"></path>
            <path d="M95.011,251.633511 L95.011,281.529733 L89.635,279.639733 L54.0827778,267.131511 L52.4198889,266.546622 L-0.000777777778,285.085733 L-0.000777777778,388.080622 L-0.000777777778,391.613289 L194.932111,460.561733 L389.861889,391.613289 L389.861889,388.080622 L389.861889,334.575733 L342.299222,317.750844 L342.299222,301.433067 L147.409889,232.943511 L95.011,251.633511 Z M114.953222,255.135067 L147.434778,243.547733 L183.557889,256.242622 L150.955,267.773956 L114.953222,255.135067 Z M159.981889,270.942622 L192.580111,259.412844 L231.092556,272.947733 L198.514556,284.469733 L159.981889,270.942622 Z M247.415,352.243733 L247.415,338.690178 L247.415,335.149733 L130.625444,294.059733 L105.008556,285.046844 L105.008556,262.239289 L284.860333,325.376178 L284.860333,365.388178 L247.415,352.243733 Z M207.541444,287.636844 L240.113222,276.1164 L278.627222,289.651289 L246.075667,301.165511 L207.541444,287.636844 Z M20.0394444,288.601289 L52.4292222,277.147733 L86.2018889,289.029067 L88.5367778,289.8504 L56.1874444,301.293067 L20.0394444,288.601289 Z M255.102556,304.334178 L287.647889,292.823067 L322.873444,305.202178 L290.345222,316.707067 L255.102556,304.334178 Z M65.2143333,304.461733 L97.5543333,293.023733 L127.307444,303.491067 L136.046556,306.563289 L103.748556,317.987289 L65.2143333,304.461733 Z M9.99677778,384.5464 L9.99677778,295.907733 L189.934111,359.075733 L189.934111,448.188844 L9.99677778,384.5464 Z M112.775444,321.155956 L145.064111,309.738178 L183.554778,323.277733 L151.309667,334.684622 L112.775444,321.155956 Z M294.856333,375.734178 L294.856333,325.713733 L332.303222,312.469733 L332.303222,362.487067 L379.867444,345.663733 L379.867444,384.5464 L199.931667,448.188844 L199.931667,359.2904 L237.419,346.029289 L237.419,388.976622 L237.419,396.046622 L294.856333,375.734178 Z M160.336556,337.851733 L192.570778,326.451067 L227.776111,338.8364 L195.579222,350.226178 L160.336556,337.851733 Z M342.299222,328.353511 L370.560556,338.349511 L342.299222,348.347067 L342.299222,328.353511 Z M247.415,362.840178 L274.477,372.3384 L247.415,381.906622 L247.415,362.840178 Z" id="Fill-6" fill="#00B899"></path>
        </g>
    </g>
</svg>