<?xml version="1.0" encoding="UTF-8"?>
<svg width="3000px" height="576px" viewBox="0 0 3000 576" version="1.1" xmlns="http://www.w3.org/2000/svg" xmlns:xlink="http://www.w3.org/1999/xlink">
    <!-- Generator: Sketch 54.1 (76490) - https://sketchapp.com -->
    <title>project-bg-nowsecure</title>
    <desc>Created with Sketch.</desc>
    <g id="project-bg-nowsecure" stroke="none" stroke-width="1" fill="none" fill-rule="evenodd">
        <circle id="Oval" stroke="#40C4FF" cx="1333.37768" cy="287.736615" r="48.4699828"></circle>
        <circle id="Oval" stroke="#40C4FF" cx="1416.2793" cy="144.725876" r="48.4699828"></circle>
        <circle id="Oval" stroke="#40C4FF" cx="1582.40969" cy="144.725876" r="48.4699828"></circle>
        <circle id="Oval" stroke="#40C4FF" cx="1582.40969" cy="431.550395" r="48.4699828"></circle>
        <circle id="Oval" stroke="#40C4FF" cx="1665.14277" cy="287.736615" r="48.4699828"></circle>
        <path d="M1333.34794,0 L1665.7971,575.830137" id="Shape" stroke="#40C4FF"></path>
        <path d="M1222.58773,0 L1555.0468,575.830137" id="Shape" stroke="#40C4FF"></path>
        <path d="M1111.51027,0 L1444.04866,575.978849" id="Shape" stroke="#40C4FF"></path>
        <path d="M1443.3051,0 L1775.82366,575.949107" id="Shape" stroke="#40C4FF"></path>
        <path d="M1555.06663,0.029742268 L1887.57527,575.949107" id="Shape" stroke="#40C4FF"></path>
        <path d="M1443.70167,0.00991408935 L1111.0344,576.196959" id="Shape" stroke="#40C4FF"></path>
        <path d="M1555.08646,0.0396563574 L1222.58773,575.949107" id="Shape" stroke="#40C4FF"></path>
        <path d="M1665.5195,0.0396563574 L1332.87206,576.196959" id="Shape" stroke="#40C4FF"></path>
        <path d="M1776.59696,0.0396563574 L1444.08832,575.949107" id="Shape" stroke="#40C4FF"></path>
        <path d="M1887.35716,0.029742268 L1554.84852,575.949107" id="Shape" stroke="#40C4FF"></path>
        <path d="M0,287.756443 L3000,287.756443" id="Shape" stroke="#40C4FF"></path>
        <path d="M0,382.545052 L3000,382.545052" id="Shape" stroke="#40C4FF"></path>
        <path d="M0,479.78244 L3000,479.78244" id="Shape" stroke="#40C4FF"></path>
        <path d="M0,192.957921 L3000,192.957921" id="Shape" stroke="#40C4FF"></path>
        <path d="M0,96.2162371 L3000,96.2162371" id="Shape" stroke="#40C4FF"></path>
        <path d="M1499.41885,0.00991408935 L1499.41885,575.949107" id="Shape" stroke="#40C4FF"></path>
        <path d="M1706.81168,260.859519 L1626.50756,121.546735 C1616.90374,104.945028 1599.18987,94.7095098 1580.01048,94.6795533 L1418.84704,94.6795533 C1399.71037,94.7141999 1382.03063,104.90534 1372.40945,121.447595 L1291.98636,260.175447 C1282.36556,276.826878 1282.36556,297.347606 1291.98636,313.999038 L1332.11859,383.26878 C1332.22765,383.467062 1332.32679,383.675258 1332.43584,383.87354 L1388.52976,479.792354 L1580.06997,480.595395 C1599.25494,480.566922 1616.97388,470.326881 1626.57696,453.718299 L1706.81168,314.465 C1716.34059,297.866901 1716.34059,277.457618 1706.81168,260.859519 L1706.81168,260.859519 Z M1319.08156,275.879364 L1399.50466,137.141598 C1403.5108,130.255669 1410.87064,126.013378 1418.83713,125.998162 L1472.37321,125.998162 L1345.9884,344.732715 L1319.08156,298.29512 C1315.07533,291.36021 1315.07533,282.814275 1319.08156,275.879364 L1319.08156,275.879364 Z M1550.53589,231.414674 L1583.02436,287.687045 L1490.42677,449.286701 L1424.38902,449.286701 L1550.53589,231.414674 Z M1679.66691,298.830481 L1599.4421,438.073866 C1595.44464,444.989522 1588.06773,449.254002 1580.07988,449.266873 L1526.5438,449.266873 L1614.68997,295.439863 C1615.51463,293.995897 1616.10366,292.429617 1616.43485,290.800069 L1616.43485,290.641443 C1616.43485,290.453076 1616.49433,290.274622 1616.52407,290.086254 C1616.55381,289.897887 1616.57364,289.788832 1616.59347,289.64012 C1616.6133,289.491409 1616.59347,289.213814 1616.65296,288.995704 C1616.71244,288.777595 1616.65296,288.757766 1616.65296,288.638797 C1616.65296,288.519828 1616.65296,288.202577 1616.65296,287.974553 C1616.65296,287.746529 1616.65296,287.736615 1616.65296,287.62756 C1616.65296,287.518505 1616.65296,287.171512 1616.65296,286.943488 C1616.65296,286.715464 1616.65296,286.725378 1616.65296,286.616323 C1616.65296,286.507268 1616.65296,286.120619 1616.58356,285.88268 C1616.58356,285.793454 1616.58356,285.704227 1616.58356,285.615 C1616.58356,285.525773 1616.52407,285.258093 1616.49433,285.079639 C1616.46459,284.901186 1616.49433,284.772302 1616.41502,284.613677 C1616.3357,284.455052 1616.3357,284.266684 1616.29605,284.08823 C1616.25639,283.909777 1616.22665,283.780893 1616.18699,283.622268 C1616.14734,283.463643 1616.05811,283.176134 1615.98871,282.94811 C1615.91931,282.720086 1615.92923,282.739914 1615.89948,282.640773 C1615.56703,281.662377 1615.13864,280.719254 1614.62057,279.825172 L1564.05871,192.303591 C1561.2644,187.459604 1556.09832,184.474091 1550.50615,184.47146 L1550.50615,184.47146 C1549.6054,184.473329 1548.70649,184.552937 1547.81943,184.709399 L1547.1651,184.838282 C1543.63304,185.61849 1540.48017,187.597796 1538.24242,190.439742 L1538.14328,190.568625 L1537.92517,190.875962 C1537.58918,191.331374 1537.27808,191.804638 1536.99325,192.293677 L1397.20459,433.62244 L1364.08162,376.061237 L1508.54973,125.998162 L1580.00057,125.998162 C1587.98583,126.011016 1595.36133,130.270903 1599.36278,137.181254 L1679.66691,276.494038 C1683.63991,283.405023 1683.64369,291.906056 1679.67682,298.820567 L1679.66691,298.830481 Z" id="Shape" fill="#33CCFF" fill-rule="nonzero" opacity="0.5"></path>
    </g>
</svg>