<?xml version="1.0" encoding="UTF-8"?>
<svg width="750px" height="576px" viewBox="0 0 750 576" version="1.1" xmlns="http://www.w3.org/2000/svg" xmlns:xlink="http://www.w3.org/1999/xlink">
    <!-- Generator: Sketch 54.1 (76490) - https://sketchapp.com -->
    <title>project-bg-consulting</title>
    <desc>Created with Sketch.</desc>
    <g id="project-bg-consulting" stroke="none" stroke-width="1" fill="none" fill-rule="evenodd">
        <path d="M321.2,87 L332.2,87 L332.2,333.4 C332.2,386.200264 319.91679,425.249874 295.35,450.55 C270.783211,475.850127 235.033568,488.5 188.1,488.5 C141.166432,488.5 105.41679,475.850127 80.85,450.55 C56.2832105,425.249874 44,386.200264 44,333.4 L44,87 L55,87 L55,333.4 C55,380.700237 65.8165585,416.633211 87.45,441.2 C109.083442,465.76679 142.633106,478.05 188.1,478.05 C233.566894,478.05 267.116559,465.76679 288.75,441.2 C310.383442,416.633211 321.2,380.700237 321.2,333.4 L321.2,87 Z M685.48333,87 L699.23333,87 L556.23333,277.85 L705.83333,479.7 L692.08333,479.7 L548.53333,286.65 L404.43333,479.7 L390.68333,479.7 L541.38333,277.85 L398.93333,87 L412.68333,87 L548.53333,269.05 L685.48333,87 Z" id="UX" fill="#F1503F" fill-rule="nonzero"></path>
    </g>
</svg>