<?xml version="1.0" encoding="UTF-8"?>
<svg width="40px" height="40px" viewBox="0 0 40 40" version="1.1" xmlns="http://www.w3.org/2000/svg" xmlns:xlink="http://www.w3.org/1999/xlink">
    <!-- Generator: Sketch 54.1 (76490) - https://sketchapp.com -->
    <title>contacttwitter</title>
    <desc>Created with Sketch.</desc>
    <g id="contacttwitter" stroke="none" stroke-width="1" fill="none" fill-rule="evenodd">
        <path d="M0,32.9166044 C2.98955707,33.101871 5.88569049,32.6695823 8.605357,31.455057 C9.83024496,30.9198425 10.9409485,30.2714095 12.051652,29.3965396 C10.7541011,29.3656618 9.56035439,29.0465916 8.48079212,28.5113771 C6.63307976,27.5850443 5.33552895,26.1132043 4.54661805,24.1473201 C4.38053155,23.7047389 4.38053155,23.7047389 4.85803025,23.7356167 C6.16596147,23.8694203 7.13133927,23.8385425 7.88910895,23.5503501 C7.1728609,23.303328 6.48775407,23.1695244 5.93759252,22.8092838 C3.1867848,21.2962735 1.72314748,18.9598562 1.47401772,15.8206171 C1.4428765,15.4603766 1.54668057,15.4192062 1.87885358,15.5838876 C2.84423138,16.1191022 3.90303285,16.3352465 5.11754041,16.4587575 C4.58813968,15.9955911 4.13140179,15.6044728 3.71618553,15.2133545 C1.4324961,12.7740113 0.89271496,8.91429114 2.41863472,5.93973345 C2.62624285,5.52802997 2.68852529,5.52802997 2.97917667,5.85739276 C6.81992708,10.2523275 11.6052945,12.907815 17.3768005,13.8238552 C17.9581033,13.9267811 18.6016885,13.9267811 19.203752,14.0708773 C19.6189683,14.1326328 19.6501095,13.9370737 19.5982075,13.6282961 C18.9961439,10.2008645 20.6154873,6.7837256 23.6984681,5.06486354 C26.8229704,3.2533682 30.9024702,3.8194605 33.4145286,6.25880365 C33.7051799,6.50582575 33.9854509,6.56758127 34.3176239,6.47494799 C35.8746849,6.12500002 37.3175614,5.55890773 38.6773947,4.7766711 C38.7915791,4.74579334 38.8746224,4.69433041 39.0303285,4.55023419 C38.4490257,6.50582575 37.2760398,7.93649536 35.5425119,9.08926512 C37.1307141,8.93487632 38.5735906,8.46141731 39.9957063,7.94678795 C40.0268475,8.13205452 39.8815218,8.25556556 39.7880981,8.40995437 C38.8227203,9.71711294 37.7016364,10.8698827 36.3729444,11.8785562 C36.1238147,12.0638228 36.0615322,12.2285042 36.0615322,12.5269892 C36.1653363,18.5378601 34.2345807,23.8694203 30.3730694,28.5216697 C26.7399272,32.7416304 22.0998855,35.3147772 16.5878896,36.1793545 C10.7333403,37.0748096 5.23172488,36.117599 0.166086504,33.0195303 C0.124564878,32.9371896 0.0519020325,32.9166044 0,32.9166044 Z" id="Path" fill="#B8B8B8" fill-rule="nonzero"></path>
    </g>
</svg>