<?xml version="1.0" encoding="UTF-8"?>
<svg width="40px" height="40px" viewBox="0 0 40 40" version="1.1" xmlns="http://www.w3.org/2000/svg" xmlns:xlink="http://www.w3.org/1999/xlink">
    <!-- Generator: Sketch 54.1 (76490) - https://sketchapp.com -->
    <title>contact-instagram</title>
    <desc>Created with Sketch.</desc>
    <g id="contact-instagram" stroke="none" stroke-width="1" fill="none" fill-rule="evenodd">
        <path d="M19.9684902,0.0630196937 C14.5453829,0.0630196937 13.8653829,0.0858643326 11.7355799,0.183194748 C9.61006565,0.280262582 8.15851204,0.617768053 6.88849015,1.11133479 C5.57531729,1.62161926 4.46170678,2.30442013 3.35159737,3.41452954 C2.24148796,4.52463895 1.55868709,5.63833698 1.04849015,6.95142232 C0.554660832,8.22161926 0.217155361,9.67317287 0.120262582,11.7985996 C0.0230196937,13.9284026 8.75273523e-05,14.6083151 8.75273523e-05,20.0314223 C8.75273523e-05,25.4547046 0.0230196937,26.1346171 0.120262582,28.2644201 C0.217155361,30.3898468 0.554660832,31.8414004 1.04849015,33.1115974 C1.55868709,34.4246827 2.24148796,35.5383807 3.35159737,36.6484902 C4.46170678,37.7585996 5.57531729,38.4414004 6.88849015,38.9516849 C8.15851204,39.4452516 9.61006565,39.7827571 11.7355799,39.8798249 C13.8653829,39.9769803 14.5453829,40 19.9684902,40 C25.3915974,40 26.0716849,39.9769803 28.201488,39.8798249 C30.3269147,39.7827571 31.7784683,39.4452516 33.0485777,38.9516849 C34.3617505,38.4414004 35.4752735,37.7585996 36.5853829,36.6484902 C37.6954923,35.5383807 38.3782932,34.4246827 38.8885777,33.1115974 C39.3823195,31.8414004 39.7198249,30.3898468 39.8168053,28.2644201 C39.9140481,26.1346171 39.9368928,25.4547046 39.9368928,20.0314223 C39.9368928,14.6083151 39.9140481,13.9284026 39.8168053,11.7985996 C39.7198249,9.67317287 39.3823195,8.22161926 38.8885777,6.95142232 C38.3782932,5.63833698 37.6954923,4.52463895 36.5853829,3.41452954 C35.4752735,2.30442013 34.3617505,1.62161926 33.0485777,1.11133479 C31.7784683,0.617768053 30.3269147,0.280262582 28.201488,0.183194748 C26.0716849,0.0858643326 25.3915974,0.0630196937 19.9684902,0.0630196937 M19.9684902,3.66091904 C25.3003063,3.66091904 25.9317287,3.68122538 28.0374617,3.77724289 C29.9843326,3.86608315 31.041663,4.19150985 31.7452954,4.46485777 C32.6774617,4.82713348 33.3426696,5.25986871 34.0413129,5.95859956 C34.7402188,6.65741794 35.172954,7.32253829 35.5350547,8.25461707 C35.8084026,8.95824945 36.1338293,10.0156674 36.2226696,11.9624508 C36.3186871,14.0681838 36.339081,14.6996061 36.339081,20.0314223 C36.339081,25.3634136 36.3186871,25.9948359 36.2226696,28.1003939 C36.1338293,30.0473523 35.8084026,31.1047702 35.5350547,31.8084026 C35.172954,32.7403939 34.7402188,33.4056018 34.0413129,34.1044201 C33.3426696,34.803151 32.6774617,35.2358862 31.7452954,35.5980744 C31.041663,35.8715098 29.9843326,36.1969365 28.0374617,36.2856018 C25.9320788,36.3817943 25.300744,36.4020131 19.9684902,36.4020131 C14.6362363,36.4020131 14.0049015,36.3817943 11.8995186,36.2856018 C9.95273523,36.1969365 8.89531729,35.8715098 8.1916849,35.5980744 C7.25960613,35.2358862 6.59439825,34.803151 5.8956674,34.1044201 C5.19702407,33.4056018 4.76428884,32.7403939 4.40201313,31.8084026 C4.12857768,31.1047702 3.80323851,30.0473523 3.71431072,28.1003939 C3.61838074,25.9948359 3.59798687,25.3634136 3.59798687,20.0314223 C3.59798687,14.6996061 3.61838074,14.0681838 3.71431072,11.9624508 C3.80323851,10.0156674 4.12857768,8.95824945 4.40201313,8.25461707 C4.76428884,7.32253829 5.19702407,6.65741794 5.8956674,5.95859956 C6.59439825,5.25986871 7.25960613,4.82713348 8.1916849,4.46485777 C8.89531729,4.19150985 9.95273523,3.86608315 11.8995186,3.77724289 C14.0052516,3.68122538 14.636674,3.66091904 19.9684902,3.66091904" id="Fill-1" fill="#B8B8B8"></path>
        <path d="M19.4871795,26.1448616 C15.8102557,26.1448616 12.8294252,23.1641313 12.8294252,19.4871357 C12.8294252,15.8102276 15.8102557,12.8294974 19.4871795,12.8294974 C23.1641908,12.8294974 26.1449338,15.8102276 26.1449338,19.4871357 C26.1449338,23.1641313 23.1641908,26.1448616 19.4871795,26.1448616 M19.4871795,9.23076923 C13.8227435,9.23076923 9.23076923,13.8228115 9.23076923,19.4871357 C9.23076923,25.1517226 13.8227435,29.7435897 19.4871795,29.7435897 C25.1516154,29.7435897 29.7435897,25.1517226 29.7435897,19.4871357 C29.7435897,13.8228115 25.1516154,9.23076923 19.4871795,9.23076923" id="Fill-4" fill="#B8B8B8"></path>
        <path d="M32.8205128,9.74358974 C32.8205128,11.1596202 31.6725344,12.3076923 30.2564103,12.3076923 C28.8403798,12.3076923 27.6923077,11.1596202 27.6923077,9.74358974 C27.6923077,8.3274656 28.8403798,7.17948718 30.2564103,7.17948718 C31.6725344,7.17948718 32.8205128,8.3274656 32.8205128,9.74358974" id="Fill-5" fill="#B8B8B8"></path>
    </g>
</svg>