<?xml version="1.0" encoding="UTF-8"?>
<svg width="40px" height="40px" viewBox="0 0 40 40" version="1.1" xmlns="http://www.w3.org/2000/svg" xmlns:xlink="http://www.w3.org/1999/xlink">
    <!-- Generator: Sketch 54.1 (76490) - https://sketchapp.com -->
    <title>contact-linkedin</title>
    <desc>Created with Sketch.</desc>
    <g id="contact-linkedin" stroke="none" stroke-width="1" fill="none" fill-rule="evenodd">
        <path d="M37.0416667,0 L2.95,0 C1.325,0 0,1.29166667 0,2.88333333 L0,37.1166667 C0,38.7083333 1.325,40 2.95,40 L37.0333333,40 C38.6666667,40 40,38.7083333 40,37.1166667 L40,2.88333333 C40,1.29166667 38.6666667,0 37.0416667,0 Z M11.8666667,34.0833333 L5.93333333,34.0833333 L5.93333333,15 L11.8666667,15 L11.8666667,34.0833333 Z M8.9,12.3833333 C7,12.3833333 5.45833333,10.8416667 5.45833333,8.94166667 C5.45833333,7.04166667 7,5.5 8.9,5.5 C10.8,5.5 12.3416667,7.04166667 12.3416667,8.94166667 C12.3333333,10.8416667 10.7916667,12.3833333 8.9,12.3833333 Z M34.0833333,34.0833333 L28.1583333,34.0833333 L28.1583333,24.8 C28.1583333,22.5833333 28.1166667,19.7416667 25.075,19.7416667 C21.9833333,19.7416667 21.5166667,22.15 21.5166667,24.6416667 L21.5166667,34.0833333 L15.5833333,34.0833333 L15.5833333,15 L21.275,15 L21.275,17.6083333 L21.35,17.6083333 C22.1416667,16.1083333 24.075,14.525 26.9666667,14.525 C32.975,14.525 34.0833333,18.475 34.0833333,23.6166667 L34.0833333,34.0833333 Z" id="Shape" fill="#B8B8B8" fill-rule="nonzero"></path>
    </g>
</svg>