<?xml version="1.0" encoding="UTF-8"?>
<svg width="576px" height="576px" viewBox="0 0 576 576" version="1.1" xmlns="http://www.w3.org/2000/svg" xmlns:xlink="http://www.w3.org/1999/xlink">
    <!-- Generator: Sketch 54.1 (76490) - https://sketchapp.com -->
    <title>project-bg-gamestar-mechanic</title>
    <desc>Created with Sketch.</desc>
    <defs>
        <polygon id="path-1" points="462 0 462 462 0 462 0 0"></polygon>
    </defs>
    <g id="project-bg-gamestar-mechanic" stroke="none" stroke-width="1" fill="none" fill-rule="evenodd">
        <g id="Group" transform="translate(57.000000, 58.000000)">
            <mask id="mask-2" fill="white">
                <use xlink:href="#path-1"></use>
            </mask>
            <g id="Clip-2"></g>
            <path d="M462,263.604795 L401.937339,275.3132 C397.765135,291.359538 391.368761,306.507162 383.13983,320.439762 L417.401102,371.279945 L371.285952,417.395597 L320.37101,383.093786 C306.463665,391.27762 291.356372,397.633898 275.345353,401.781043 L263.606951,462 L198.393049,462 L186.654647,401.781043 C170.643628,397.633898 155.536335,391.27762 141.62899,383.093786 L90.7190689,417.400617 L44.6039188,371.279945 L78.8551495,320.439762 C70.6262185,306.507162 64.2348645,291.359538 60.0676817,275.3132 L0,263.609815 L0,198.390185 L59.9421641,186.711904 C64.0892642,170.580213 70.4906595,155.362299 78.7296319,141.364429 L44.6039188,90.715034 L90.7140482,44.5993827 L141.297623,78.6802799 C155.320445,70.3910105 170.573338,63.9544002 186.739999,59.7771306 L198.393049,0 L263.606951,0 L275.260001,59.7821513 C291.426662,63.9544002 306.679555,70.3910105 320.702377,78.6802799 L371.280931,44.5993827 L417.401102,90.7100133 L383.270368,141.364429 C391.50934,155.362299 397.910736,170.580213 402.052815,186.711904 L462,198.390185 L462,263.604795 Z M367.188055,230.998996 C367.188055,155.783038 306.211626,94.8109674 231.001506,94.8109674 C155.791387,94.8109674 94.8149578,155.783038 94.8149578,230.998996 C94.8149578,306.209933 155.791387,367.187024 231.001506,367.187024 C306.211626,367.187024 367.188055,306.209933 367.188055,230.998996 Z" id="Combined-Shape" fill="#6B006B" mask="url(#mask-2)"></path>
            <polygon id="Fill-6" fill="#6B006B" mask="url(#mask-2)" points="229.5 117 264.572875 187.770313 343 199.121353 286.25 254.212135 299.64575 332 229.5 295.267814 159.349231 332 172.75 254.212135 116 199.121353 194.412068 187.770313"></polygon>
        </g>
    </g>
</svg>